<svg width="16" height="17" viewBox="0 0 16 17" fill="none" xmlns="http://www.w3.org/2000/svg">
<path fill-rule="evenodd" clip-rule="evenodd" d="M8 16.2676C12.4183 16.2676 16 12.6859 16 8.26758C16 3.8493 12.4183 0.267578 8 0.267578C3.58172 0.267578 0 3.8493 0 8.26758C0 12.6859 3.58172 16.2676 8 16.2676Z" fill="#9D5CD0"/>
<path d="M7.26154 6.72268H8.73846V13.2676H7.26154V6.72268ZM8 5.17017C7.71282 5.17017 7.4718 5.07884 7.27692 4.89619C7.09231 4.71354 7 4.49031 7 4.22648C7 3.96266 7.09231 3.73942 7.27692 3.55677C7.4718 3.36398 7.71282 3.26758 8 3.26758C8.28718 3.26758 8.52308 3.3589 8.70769 3.54155C8.90256 3.71405 9 3.93221 9 4.19604C9 4.47001 8.90256 4.7034 8.70769 4.89619C8.52308 5.07884 8.28718 5.17017 8 5.17017Z" fill="white"/>
</svg>
